<svg width="400" height="36" viewBox="0 0 400 36" fill="none" xmlns="http://www.w3.org/2000/svg">
<g clip-path="url(#clip0_516_43869)">
<path d="M193.509 12.1094H189.712V4.51129H197.31V8.30855H196.203V5.61838H190.819V11.0023H193.509V12.1094Z" fill="#D8B52A"/>
<path d="M210.292 12.1094H206.491V11.0023H209.185V5.61838H203.801V8.30855H202.694V4.51129H210.292V12.1094Z" fill="#D8B52A"/>
<path d="M210.292 25.0915H202.694V21.2906H203.801V23.9844H209.185V18.6005H206.491V17.4934H210.292V25.0915Z" fill="#D8B52A"/>
<path d="M197.31 25.0915H189.712V17.4934H193.509V18.6005H190.819V23.9844H196.203V21.2906H197.31V25.0915Z" fill="#D8B52A"/>
<path d="M209.736 14.2478H206.491V15.3549H209.736V14.2478Z" fill="#D8B52A"/>
<path d="M193.509 14.2478H190.263V15.3549H193.509V14.2478Z" fill="#D8B52A"/>
<path d="M200.555 5.06302H199.448V8.30854H200.555V5.06302Z" fill="#D8B52A"/>
<path d="M200.555 21.2906H199.448V24.5362H200.555V21.2906Z" fill="#D8B52A"/>
<path d="M190.819 20.1727L185.446 14.7996L190.819 9.42645L193.505 12.113L192.723 12.8956L190.819 10.9915L187.014 14.7996L190.819 18.6077L192.723 16.7036L193.505 17.4862L190.819 20.1727Z" fill="#D8B52A"/>
<path d="M202.687 8.30492L201.904 7.52239L203.808 5.62195L200 1.81387L196.192 5.62195L198.096 7.52239L197.314 8.30492L194.627 5.62195L200 0.24881L205.373 5.62195L202.687 8.30492Z" fill="#D8B52A"/>
<path d="M209.181 20.1727L206.495 17.4862L207.277 16.7036L209.181 18.6077L212.986 14.7996L209.181 10.9915L207.277 12.8956L206.495 12.113L209.181 9.42645L214.554 14.7996L209.181 20.1727Z" fill="#D8B52A"/>
<path d="M200 29.354L194.627 23.9808L197.314 21.2943L198.096 22.0768L196.192 23.9808L200 27.7853L203.808 23.9808L201.904 22.0768L202.687 21.2943L205.373 23.9808L200 29.354Z" fill="#D8B52A"/>
<path d="M206.493 7.52462L204.198 9.81955L204.981 10.6025L207.276 8.30752L206.493 7.52462Z" fill="#D8B52A"/>
<path d="M195.018 18.9995L192.723 21.2944L193.506 22.0773L195.801 19.7824L195.018 18.9995Z" fill="#D8B52A"/>
<path d="M193.535 7.20479L192.752 7.9877L195.047 10.2826L195.83 9.49973L193.535 7.20479Z" fill="#D8B52A"/>
<path d="M204.981 18.997L204.198 19.7798L206.493 22.0747L207.276 21.2919L204.981 18.997Z" fill="#D8B52A"/>
<path d="M165.522 18.1497L169.229 14.4318L165.522 10.7535L161.815 14.4714L165.522 18.1497Z" fill="#D8B52A"/>
<path d="M164.974 35.369L169.582 30.7856L165.522 27.4247L161.815 31.1426L164.974 35.369Z" fill="#D8B52A"/>
<path d="M166.802 29.5487L147.394 10.2991L155.792 1.87158L156.56 2.63608L148.926 10.2955L169.582 30.7856L166.802 29.5487Z" fill="#D8B52A"/>
<path d="M9.39761 29.6785V9.55628H149.247L156.124 2.72625L162.586 2.67938L139.558 28.5714H8.29053V29.6785H140.055L165.071 1.55426L155.666 1.62278L148.789 8.4492H8.29053V29.6785" fill="#D8B52A"/>
<path d="M0 15.7804H15.7769V3.05176e-05H0V15.7804ZM14.6734 14.6736H1.10702V1.10723H14.6734V14.6736Z" fill="#D8B52A"/>
<path d="M31.3842 22.8088H83.9437C84.0828 22.7976 84.2127 22.7343 84.3073 22.6317C84.4019 22.5291 84.4543 22.3948 84.4543 22.2552C84.4543 22.1157 84.4019 21.9813 84.3073 21.8788C84.2127 21.7762 84.0828 21.7129 83.9437 21.7016H31.3842C31.2451 21.7129 31.1154 21.7762 31.0208 21.8788C30.9262 21.9813 30.8738 22.1157 30.8738 22.2552C30.8738 22.3948 30.9262 22.5291 31.0208 22.6317C31.1154 22.7343 31.2451 22.7976 31.3842 22.8088Z" fill="#D8B52A"/>
<path d="M94.975 22.8089H137.026C137.103 22.8151 137.18 22.8054 137.252 22.7804C137.325 22.7553 137.391 22.7154 137.447 22.6634C137.504 22.6114 137.549 22.5485 137.58 22.4782C137.61 22.4079 137.626 22.332 137.626 22.2553C137.626 22.1786 137.61 22.1026 137.58 22.0324C137.549 21.9621 137.504 21.8991 137.447 21.8471C137.391 21.7951 137.325 21.7552 137.252 21.7302C137.18 21.7052 137.103 21.6955 137.026 21.7017H94.975C94.8359 21.7129 94.7062 21.7762 94.6116 21.8788C94.5169 21.9814 94.4644 22.1157 94.4644 22.2553C94.4644 22.3948 94.5169 22.5292 94.6116 22.6317C94.7062 22.7343 94.8359 22.7976 94.975 22.8089Z" fill="#D8B52A"/>
<path d="M5.47061 15.5821H4.36353V29.6785H5.47061V15.5821Z" fill="#D8B52A"/>
<path d="M8.84237 15.3838H4.91528V29.6785H8.84237V15.3838Z" fill="#D8B52A"/>
<path d="M152.843 4.52209H15.2251V5.62918H152.843V4.52209Z" fill="#D8B52A"/>
<path d="M31.4204 9.00089V5.07376L14.7346 5.07376V9.00089H31.4204Z" fill="#D8B52A"/>
<path d="M66.4937 9.0045V5.07736L49.8079 5.07736V9.0045H66.4937Z" fill="#D8B52A"/>
<path d="M100.849 9.00453V5.07739L84.1636 5.07739V9.00453H100.849Z" fill="#D8B52A"/>
<path d="M135.696 9.00447V5.07751L119.01 5.07751V9.00447H135.696Z" fill="#D8B52A"/>
<path d="M89.6991 24.5542C90.1641 24.5542 90.6186 24.4164 91.0053 24.1581C91.3919 23.8997 91.6933 23.5326 91.8712 23.103C92.0492 22.6734 92.0958 22.2004 92.0051 21.7443C91.9143 21.2883 91.6905 20.8695 91.3617 20.5407C91.0328 20.2118 90.6139 19.9876 90.1578 19.8969C89.7017 19.8062 89.229 19.8528 88.7993 20.0307C88.3697 20.2087 88.0024 20.51 87.7441 20.8967C87.4857 21.2833 87.3479 21.7382 87.3479 22.2032C87.3489 22.8265 87.5969 23.424 88.0376 23.8647C88.4783 24.3054 89.0758 24.5533 89.6991 24.5542ZM89.6991 20.5875C90.0208 20.5875 90.3351 20.6828 90.6026 20.8615C90.87 21.0402 91.0785 21.2943 91.2016 21.5915C91.3247 21.8887 91.357 22.2156 91.2942 22.5311C91.2315 22.8466 91.0765 23.1365 90.8491 23.3639C90.6216 23.5914 90.3319 23.7463 90.0164 23.8091C89.7009 23.8718 89.3738 23.8395 89.0767 23.7165C88.7795 23.5934 88.5255 23.3849 88.3468 23.1174C88.1681 22.85 88.0726 22.5354 88.0726 22.2138C88.0712 21.9993 88.1122 21.7869 88.1933 21.5883C88.2744 21.3898 88.3941 21.2091 88.5453 21.0569C88.6964 20.9048 88.8762 20.784 89.0742 20.7016C89.2722 20.6192 89.4846 20.5766 89.6991 20.5766V20.5875Z" fill="#D8B52A"/>
<path d="M145.403 14.3524L165.323 34.1934L165.381 34.2763V34.9579L164.973 35.369L144.956 15.4343H15.7659V29.1051H14.6841V14.3524H145.403Z" fill="#D8B52A"/>
<path d="M234.478 18.1497L230.771 14.4318L234.478 10.7535L238.185 14.4714L234.478 18.1497Z" fill="#D8B52A"/>
<path d="M235.026 35.369L230.418 30.7856L234.478 27.4247L238.185 31.1426L235.026 35.369Z" fill="#D8B52A"/>
<path d="M233.198 29.5487L252.61 10.2991L244.208 1.87158L243.439 2.63608L251.077 10.2955L230.418 30.7856L233.198 29.5487Z" fill="#D8B52A"/>
<path d="M390.602 29.6785V9.55628H250.756L243.876 2.72625L237.414 2.67938L260.442 28.5714H391.709V29.6785H259.948L234.933 1.55426L244.334 1.62278L251.211 8.4492H391.709V29.6785" fill="#D8B52A"/>
<path d="M400.018 15.7804H384.223V0H400.018V15.7804ZM385.348 14.6735H398.914V1.1072H385.348V14.6735Z" fill="#D8B52A"/>
<path d="M368.616 22.8089H316.06C315.921 22.7976 315.791 22.7343 315.696 22.6317C315.602 22.5292 315.549 22.3948 315.549 22.2553C315.549 22.1157 315.602 21.9814 315.696 21.8788C315.791 21.7762 315.921 21.7129 316.06 21.7017H368.616C368.692 21.6955 368.769 21.7052 368.842 21.7302C368.914 21.7552 368.981 21.7951 369.037 21.8471C369.093 21.8991 369.138 21.9621 369.169 22.0324C369.2 22.1026 369.216 22.1786 369.216 22.2553C369.216 22.332 369.2 22.4079 369.169 22.4782C369.138 22.5485 369.093 22.6114 369.037 22.6634C368.981 22.7154 368.914 22.7553 368.842 22.7804C368.769 22.8054 368.692 22.8151 368.616 22.8089Z" fill="#D8B52A"/>
<path d="M305.029 22.8089H262.985C262.908 22.8151 262.831 22.8054 262.759 22.7804C262.686 22.7553 262.62 22.7154 262.564 22.6634C262.507 22.6114 262.462 22.5485 262.431 22.4782C262.401 22.4079 262.385 22.332 262.385 22.2553C262.385 22.1786 262.401 22.1026 262.431 22.0324C262.462 21.9621 262.507 21.8991 262.564 21.8471C262.62 21.7951 262.686 21.7552 262.759 21.7302C262.831 21.7052 262.908 21.6955 262.985 21.7017H305.036C305.175 21.7129 305.305 21.7762 305.4 21.8788C305.494 21.9814 305.547 22.1157 305.547 22.2553C305.547 22.3948 305.494 22.5292 305.4 22.6317C305.305 22.7343 305.175 22.7976 305.036 22.8089H305.029Z" fill="#D8B52A"/>
<path d="M395.637 15.5821H394.53V29.6785H395.637V15.5821Z" fill="#D8B52A"/>
<path d="M391.158 29.6784H395.085V15.3838H391.158V29.6784Z" fill="#D8B52A"/>
<path d="M384.775 4.52209H247.157V5.62918H384.775V4.52209Z" fill="#D8B52A"/>
<path d="M385.265 9.00459V5.07745L368.58 5.07745V9.00459H385.265Z" fill="#D8B52A"/>
<path d="M350.192 9.00096V5.07382L333.506 5.07382V9.00096H350.192Z" fill="#D8B52A"/>
<path d="M315.833 9.00096V5.07382L299.147 5.07382V9.00096H315.833Z" fill="#D8B52A"/>
<path d="M280.987 9.00102V5.07388L264.301 5.07388V9.00102H280.987Z" fill="#D8B52A"/>
<path d="M310.304 24.5542C309.839 24.5542 309.385 24.4164 308.998 24.1581C308.611 23.8997 308.31 23.5326 308.132 23.103C307.954 22.6734 307.908 22.2004 307.998 21.7443C308.089 21.2883 308.313 20.8695 308.642 20.5407C308.971 20.2118 309.39 19.9876 309.846 19.8969C310.302 19.8062 310.775 19.8528 311.204 20.0307C311.634 20.2087 312.001 20.51 312.259 20.8967C312.518 21.2833 312.656 21.7382 312.656 22.2032C312.656 22.8268 312.408 23.4248 311.967 23.8658C311.526 24.3067 310.928 24.5542 310.304 24.5542ZM310.304 20.5875C309.983 20.5875 309.668 20.6828 309.401 20.8615C309.133 21.0402 308.925 21.2943 308.802 21.5915C308.679 21.8887 308.647 22.2156 308.709 22.5311C308.772 22.8466 308.927 23.1365 309.154 23.3639C309.382 23.5914 309.672 23.7463 309.987 23.8091C310.303 23.8718 310.63 23.8395 310.927 23.7165C311.224 23.5934 311.478 23.3849 311.657 23.1174C311.835 22.85 311.931 22.5354 311.931 22.2138C311.932 21.9993 311.891 21.7869 311.81 21.5883C311.729 21.3898 311.609 21.2091 311.458 21.0569C311.307 20.9048 311.127 20.784 310.929 20.7016C310.731 20.6192 310.519 20.5766 310.304 20.5766V20.5875Z" fill="#D8B52A"/>
<path d="M254.597 14.3524L234.677 34.1934L234.619 34.2763V34.9579L235.026 35.369L255.044 15.4343H384.238V29.1051H385.319V14.3524H254.597Z" fill="#D8B52A"/>
</g>
<defs>
<clipPath id="clip0_516_43869">
<rect width="400" height="35.369" fill="white"/>
</clipPath>
</defs>
</svg>
