<svg width="272" height="15" viewBox="0 0 272 15" fill="none" xmlns="http://www.w3.org/2000/svg">
<g clip-path="url(#clip0_562_7507)">
<path d="M46.2524 -0.00693742C71.7419 9.33516 102.923 14.3983 135.762 14.3983C168.602 14.3983 199.786 9.33517 225.276 -0.00692177L224.328 -0.00692185C199.033 9.12695 168.217 14.0756 135.773 14.0756C102.53 14.0756 71.8529 8.82502 47.3143 -0.00693733L46.2524 -0.00693742Z" fill="#D8B52A"/>
<path d="M230.769 5.16385C229.456 5.16385 228.392 6.22815 228.392 7.54102C228.392 8.85389 229.456 9.91819 230.769 9.91819C232.082 9.91819 233.146 8.85389 233.146 7.54102C233.146 6.22815 232.082 5.16385 230.769 5.16385Z" fill="#D8B52A"/>
<path d="M206.612 8.9222C205.734 8.9222 205.023 9.6338 205.023 10.5116C205.023 11.3894 205.734 12.101 206.612 12.101C207.49 12.101 208.202 11.3894 208.202 10.5116C208.202 9.63381 207.49 8.9222 206.612 8.9222Z" fill="#D8B52A"/>
<path d="M192.457 10.8829C191.84 10.8829 191.339 11.3832 191.339 12.0004C191.339 12.6175 191.84 13.1178 192.457 13.1178C193.074 13.1178 193.574 12.6175 193.574 12.0004C193.574 11.3832 193.074 10.8829 192.457 10.8829Z" fill="#D8B52A"/>
<path d="M41.2794 5.16384C39.9666 5.16384 38.9023 6.22813 38.9023 7.541C38.9023 8.85388 39.9666 9.91817 41.2794 9.91817C42.5923 9.91817 43.6566 8.85388 43.6566 7.541C43.6566 6.22813 42.5923 5.16384 41.2794 5.16384Z" fill="#D8B52A"/>
<path d="M65.4364 8.92219C64.5586 8.92219 63.847 9.63379 63.847 10.5116C63.847 11.3894 64.5586 12.101 65.4364 12.101C66.3142 12.101 67.0258 11.3894 67.0258 10.5116C67.0258 9.63379 66.3142 8.92219 65.4364 8.92219Z" fill="#D8B52A"/>
<path d="M79.5918 10.8829C78.9746 10.8829 78.4743 11.3832 78.4743 12.0004C78.4743 12.6175 78.9746 13.1178 79.5918 13.1178C80.2089 13.1178 80.7092 12.6175 80.7092 12.0004C80.7092 11.3832 80.2089 10.8829 79.5918 10.8829Z" fill="#D8B52A"/>
<path d="M73.0502 -0.00693464C90.9605 9.20676 112.789 14.2007 135.762 14.2007C158.736 14.2007 180.564 9.20677 198.478 -0.00692368L197.655 -0.00692375C180.425 8.69663 158.982 13.8743 135.762 13.8743C112.542 13.8743 91.0993 8.70703 73.8727 -0.00693457L73.0502 -0.00693464Z" fill="#D8B52A"/>
<path d="M89.2913 -0.0069041C102.555 8.99857 118.876 13.9681 135.762 13.9022C152.968 13.8362 168.866 8.66543 181.678 -0.00689602L181.074 -0.00689607C168.387 8.46068 152.711 13.5031 135.762 13.569C119.105 13.6315 103.027 8.78688 89.8952 -0.00690404L89.2913 -0.0069041Z" fill="#D8B52A"/>
<path d="M100.049 -0.0069089C110.276 9.05062 122.832 13.9681 135.762 13.9022C148.981 13.8362 161.196 8.66542 171.038 -0.00690269L170.538 -0.00690274C160.821 8.46067 148.776 13.5031 135.773 13.569C123.044 13.6315 110.679 8.83893 100.563 -0.00690886L100.049 -0.0069089Z" fill="#D8B52A"/>
<path d="M-0.00350824 0.114589C38.5621 9.61285 85.8938 14.7665 135.762 14.7665C185.835 14.7665 233.351 9.56087 272 -0.00332355L267.537 -0.00332395C229.756 8.90151 183.948 13.7183 135.762 13.7183C87.7678 13.7183 42.1296 8.93613 4.43503 0.100694L-0.00350824 0.114589Z" fill="#D8B52A"/>
</g>
<defs>
<clipPath id="clip0_562_7507">
<rect width="272" height="14.7662" fill="white" transform="translate(272 14.7662) rotate(-180)"/>
</clipPath>
</defs>
</svg>
