<svg width="400" height="37" viewBox="0 0 400 37" fill="none" xmlns="http://www.w3.org/2000/svg">
<g clip-path="url(#clip0_562_7611)">
<path d="M199.859 18.5189L196.152 22.2368L199.859 25.915L203.566 22.1971L199.859 18.5189Z" fill="#D8B52A"/>
<path d="M199.859 1.84771L196.152 5.56924L199.859 9.2439L203.566 5.52597L199.859 1.84771Z" fill="#D8B52A"/>
<path d="M199.913 8.44335L217.987 26.3695L209.589 34.797L208.821 34.0325L216.455 26.3731L199.917 9.97235L183.376 26.5606L190.819 33.9423L190.058 34.7104L181.843 26.5642L199.913 8.44335Z" fill="#D8B52A"/>
<path d="M9.39755 6.99011V27.1124L183.863 27.1124L190.743 33.9424L197.205 33.9893L174.176 8.09719L8.2905 8.09719V6.99011L174.67 6.99011L199.686 35.1144L190.285 35.0459L183.408 28.2194L8.2905 28.2194V6.99011" fill="#D8B52A"/>
<path d="M-9.53674e-07 20.8919H15.7769L15.7769 36.6687H-9.53674e-07L-9.53674e-07 20.8919ZM14.6697 21.9987H1.0998L1.0998 35.5615H14.6624L14.6697 21.9987Z" fill="#D8B52A"/>
<path d="M66.0103 13.8634L118.559 13.8634C118.635 13.8573 118.712 13.8669 118.785 13.892C118.857 13.917 118.924 13.9569 118.98 14.0089C119.037 14.0609 119.082 14.1239 119.112 14.1941C119.143 14.2644 119.159 14.3403 119.159 14.417C119.159 14.4937 119.143 14.5694 119.112 14.6396C119.082 14.7099 119.037 14.7732 118.98 14.8252C118.924 14.8772 118.857 14.9167 118.785 14.9418C118.712 14.9668 118.635 14.9768 118.559 14.9706L66.0103 14.9706C65.8712 14.9594 65.7415 14.8961 65.6469 14.7935C65.5523 14.6909 65.4997 14.5566 65.4997 14.417C65.4997 14.2775 65.5523 14.1428 65.6469 14.0402C65.7415 13.9377 65.8712 13.8747 66.0103 13.8634Z" fill="#D8B52A"/>
<path d="M129.594 13.8634L171.645 13.8634C171.784 13.8747 171.914 13.9377 172.008 14.0402C172.103 14.1428 172.156 14.2775 172.156 14.417C172.156 14.5566 172.103 14.6909 172.008 14.7935C171.914 14.8961 171.784 14.9594 171.645 14.9706L129.594 14.9706C129.517 14.9768 129.44 14.9668 129.368 14.9418C129.295 14.9167 129.229 14.8772 129.173 14.8252C129.116 14.7732 129.071 14.7099 129.04 14.6396C129.01 14.5694 128.994 14.4937 128.994 14.417C128.994 14.3403 129.01 14.2644 129.04 14.1941C129.071 14.1239 129.116 14.0609 129.173 14.0089C129.229 13.9569 129.295 13.917 129.368 13.892C129.44 13.8669 129.517 13.8573 129.594 13.8634Z" fill="#D8B52A"/>
<path d="M4.3634 21.0864H5.47046L5.47046 6.99003H4.3634L4.3634 21.0864Z" fill="#D8B52A"/>
<path d="M8.84583 6.99011L4.9187 6.99011L4.9187 21.2847H8.84583L8.84583 6.99011Z" fill="#D8B52A"/>
<path d="M15.2251 32.1465L187.461 32.1465V31.0394L15.2251 31.0394V32.1465Z" fill="#D8B52A"/>
<path d="M14.7349 27.6677V31.5948H31.4203V27.6677H14.7349Z" fill="#D8B52A"/>
<path d="M49.5809 27.6676V31.5947H66.2664V27.6676H49.5809Z" fill="#D8B52A"/>
<path d="M84.427 27.6676V31.5947H101.112V27.6676H84.427Z" fill="#D8B52A"/>
<path d="M118.783 27.6676V31.5947H135.468V27.6676H118.783Z" fill="#D8B52A"/>
<path d="M153.629 27.6641V31.5911H170.314V27.6641H153.629Z" fill="#D8B52A"/>
<path d="M124.318 12.118C124.783 12.118 125.238 12.2559 125.624 12.5142C126.011 12.7726 126.312 13.1397 126.49 13.5693C126.668 13.9989 126.715 14.4718 126.624 14.9279C126.533 15.384 126.309 15.8028 125.981 16.1316C125.652 16.4604 125.233 16.6843 124.777 16.775C124.321 16.8657 123.848 16.8192 123.418 16.6412C122.989 16.4632 122.622 16.1619 122.363 15.7752C122.105 15.3886 121.967 14.9341 121.967 14.4691C121.967 14.1603 122.028 13.8545 122.146 13.5693C122.264 13.284 122.437 13.0248 122.655 12.8065C122.874 12.5882 123.133 12.4151 123.418 12.2969C123.704 12.1788 124.009 12.118 124.318 12.118ZM124.318 16.0848C124.64 16.0848 124.954 15.9892 125.222 15.8104C125.489 15.6317 125.698 15.3779 125.821 15.0808C125.944 14.7836 125.976 14.4563 125.913 14.1408C125.85 13.8254 125.695 13.5358 125.468 13.3083C125.241 13.0809 124.951 12.926 124.635 12.8632C124.32 12.8004 123.993 12.8327 123.696 12.9558C123.398 13.0789 123.144 13.2874 122.966 13.5548C122.787 13.8223 122.692 14.1365 122.692 14.4581C122.691 14.6725 122.732 14.8852 122.813 15.0836C122.895 15.2819 123.014 15.4622 123.165 15.6143C123.316 15.7664 123.496 15.887 123.694 15.9696C123.891 16.0522 124.104 16.0949 124.318 16.0953V16.0848Z" fill="#D8B52A"/>
<path d="M180.022 22.3162L199.942 2.47519L200 2.53289V0.996679L199.946 0.946194L179.575 21.2343L15.7624 21.2343V7.56345H14.6806V22.3162L180.022 22.3162Z" fill="#D8B52A"/>
<path d="M390.602 6.99011V27.1124L216.134 27.1124L209.257 33.9424L202.795 33.9893L225.824 8.09719L391.709 8.09719V6.99011L225.326 6.99011L200.31 35.1144L209.715 35.0459L216.592 28.2194L391.709 28.2194V6.99011" fill="#D8B52A"/>
<path d="M400 20.8919H384.223V36.6687H400V20.8919ZM385.33 21.9987H398.893V35.5615H385.33V21.9987Z" fill="#D8B52A"/>
<path d="M333.997 13.8634L281.441 13.8634C281.365 13.8573 281.288 13.8669 281.215 13.892C281.143 13.917 281.076 13.9569 281.02 14.0089C280.963 14.0609 280.918 14.1239 280.888 14.1941C280.857 14.2644 280.841 14.3403 280.841 14.417C280.841 14.4937 280.857 14.5694 280.888 14.6396C280.918 14.7099 280.963 14.7732 281.02 14.8252C281.076 14.8772 281.143 14.9167 281.215 14.9418C281.288 14.9668 281.365 14.9768 281.441 14.9706L333.997 14.9706C334.136 14.9594 334.266 14.8961 334.36 14.7935C334.455 14.6909 334.508 14.5566 334.508 14.417C334.508 14.2775 334.455 14.1428 334.36 14.0402C334.266 13.9377 334.136 13.8747 333.997 13.8634Z" fill="#D8B52A"/>
<path d="M270.406 13.8634L228.355 13.8634C228.216 13.8747 228.086 13.9377 227.992 14.0402C227.897 14.1428 227.844 14.2775 227.844 14.417C227.844 14.5566 227.897 14.6909 227.992 14.7935C228.086 14.8961 228.216 14.9594 228.355 14.9706L270.406 14.9706C270.483 14.9768 270.56 14.9668 270.632 14.9418C270.705 14.9167 270.771 14.8772 270.828 14.8252C270.884 14.7732 270.929 14.7099 270.96 14.6396C270.99 14.5694 271.006 14.4937 271.006 14.417C271.006 14.3403 270.99 14.2644 270.96 14.1941C270.929 14.1239 270.884 14.0609 270.828 14.0089C270.771 13.9569 270.705 13.917 270.632 13.892C270.56 13.8669 270.483 13.8573 270.406 13.8634Z" fill="#D8B52A"/>
<path d="M394.53 21.0864H395.637V6.99003H394.53V21.0864Z" fill="#D8B52A"/>
<path d="M391.158 21.2848H395.085V6.99006H391.158V21.2848Z" fill="#D8B52A"/>
<path d="M212.539 32.1465L384.775 32.1465V31.0394L212.539 31.0394V32.1465Z" fill="#D8B52A"/>
<path d="M368.58 27.6641V31.5912H385.265V27.6641H368.58Z" fill="#D8B52A"/>
<path d="M333.734 27.6641V31.5912H350.419V27.6641H333.734Z" fill="#D8B52A"/>
<path d="M298.888 27.6678V31.5947H315.573V27.6678H298.888Z" fill="#D8B52A"/>
<path d="M264.532 27.6678V31.5947H281.217V27.6678H264.532Z" fill="#D8B52A"/>
<path d="M229.682 27.6641V31.5912H246.368V27.6641H229.682Z" fill="#D8B52A"/>
<path d="M275.682 12.118C275.217 12.118 274.762 12.2559 274.376 12.5142C273.989 12.7726 273.688 13.1397 273.51 13.5693C273.332 13.9989 273.285 14.4718 273.376 14.9279C273.467 15.384 273.691 15.8028 274.02 16.1316C274.348 16.4604 274.767 16.6843 275.223 16.775C275.68 16.8657 276.152 16.8192 276.582 16.6412C277.012 16.4632 277.379 16.1619 277.637 15.7752C277.895 15.3886 278.033 14.9341 278.033 14.4691C278.032 13.8458 277.784 13.2483 277.344 12.8076C276.903 12.3668 276.305 12.119 275.682 12.118ZM275.682 16.0848C275.36 16.0848 275.046 15.9892 274.778 15.8104C274.511 15.6317 274.303 15.3779 274.179 15.0808C274.056 14.7836 274.024 14.4563 274.087 14.1408C274.15 13.8254 274.305 13.5358 274.532 13.3083C274.759 13.0809 275.049 12.926 275.365 12.8632C275.68 12.8004 276.007 12.8327 276.304 12.9558C276.602 13.0789 276.856 13.2874 277.034 13.5548C277.213 13.8223 277.308 14.1365 277.308 14.4581C277.309 14.6725 277.268 14.8852 277.187 15.0836C277.105 15.2819 276.986 15.4622 276.835 15.6143C276.684 15.7664 276.504 15.887 276.306 15.9696C276.109 16.0522 275.896 16.0949 275.682 16.0953V16.0848Z" fill="#D8B52A"/>
<path d="M219.978 22.3162L200.058 2.47519L200 2.53289V0.996679L200.05 0.946194L220.425 21.2343L384.234 21.2343V7.56345H385.316V22.3162L219.978 22.3162Z" fill="#D8B52A"/>
</g>
<defs>
<clipPath id="clip0_562_7611">
<rect width="400" height="35.7224" fill="white" transform="translate(400 36.6686) rotate(-180)"/>
</clipPath>
</defs>
</svg>
