<svg width="272" height="16" viewBox="0 0 272 16" fill="none" xmlns="http://www.w3.org/2000/svg">
<g clip-path="url(#clip0_562_7555)">
<path d="M225.748 15.7118C200.258 6.36968 169.077 1.30657 136.238 1.30657C103.398 1.30657 72.2138 6.36968 46.7244 15.7118H47.6718C72.9669 6.5779 103.783 1.6292 136.227 1.6292C169.47 1.6292 200.147 6.87982 224.686 15.7118H225.748Z" fill="#D8B52A"/>
<path d="M41.2308 10.541C42.5437 10.541 43.608 9.47671 43.608 8.16383C43.608 6.85096 42.5437 5.78667 41.2308 5.78667C39.9179 5.78667 38.8536 6.85096 38.8536 8.16383C38.8536 9.47671 39.9179 10.541 41.2308 10.541Z" fill="#D8B52A"/>
<path d="M65.3877 6.78265C66.2656 6.78265 66.9772 6.07105 66.9772 5.19325C66.9772 4.31544 66.2656 3.60384 65.3877 3.60384C64.5099 3.60384 63.7983 4.31544 63.7983 5.19325C63.7983 6.07105 64.5099 6.78265 65.3877 6.78265Z" fill="#D8B52A"/>
<path d="M79.5431 4.82192C80.1602 4.82192 80.6605 4.32162 80.6605 3.70448C80.6605 3.08733 80.1602 2.58704 79.5431 2.58704C78.926 2.58704 78.4257 3.08733 78.4257 3.70448C78.4257 4.32162 78.926 4.82192 79.5431 4.82192Z" fill="#D8B52A"/>
<path d="M230.721 10.541C232.033 10.541 233.098 9.47671 233.098 8.16383C233.098 6.85096 232.033 5.78667 230.721 5.78667C229.408 5.78667 228.343 6.85096 228.343 8.16383C228.343 9.47671 229.408 10.541 230.721 10.541Z" fill="#D8B52A"/>
<path d="M206.564 6.78265C207.442 6.78265 208.153 6.07105 208.153 5.19325C208.153 4.31544 207.442 3.60384 206.564 3.60384C205.686 3.60384 204.974 4.31544 204.974 5.19325C204.974 6.07105 205.686 6.78265 206.564 6.78265Z" fill="#D8B52A"/>
<path d="M192.408 4.82192C193.025 4.82192 193.526 4.32162 193.526 3.70448C193.526 3.08733 193.025 2.58704 192.408 2.58704C191.791 2.58704 191.291 3.08733 191.291 3.70448C191.291 4.32162 191.791 4.82192 192.408 4.82192Z" fill="#D8B52A"/>
<path d="M198.95 15.7118C181.039 6.49809 159.211 1.50415 136.238 1.50415C113.264 1.50415 91.4359 6.49809 73.5221 15.7118H74.3446C91.5747 7.00822 113.018 1.83051 136.238 1.83051C159.458 1.83051 180.901 6.99781 198.127 15.7118H198.95Z" fill="#D8B52A"/>
<path d="M182.709 15.7117C169.445 6.70627 153.124 1.73675 136.238 1.80269C119.032 1.86862 103.134 7.03942 90.322 15.7117H90.9259C103.613 7.24417 119.289 2.20176 136.238 2.13582C152.895 2.07336 168.973 6.91796 182.105 15.7117H182.709Z" fill="#D8B52A"/>
<path d="M171.951 15.7118C161.724 6.65422 149.168 1.73676 136.238 1.80269C123.019 1.86863 110.804 7.03943 100.962 15.7118H101.462C111.179 7.24418 123.224 2.20177 136.227 2.13583C148.956 2.07337 161.321 6.86591 171.437 15.7118H171.951Z" fill="#D8B52A"/>
<path d="M272.004 15.5902C233.438 6.09199 186.106 0.938324 136.238 0.938324C86.1645 0.938324 38.6489 6.14399 0 15.7082H4.46282C42.2442 6.80335 88.0524 1.98654 136.238 1.98654C184.232 1.98654 229.87 6.76871 267.565 15.6041L272.004 15.5902Z" fill="#D8B52A"/>
</g>
<defs>
<clipPath id="clip0_562_7555">
<rect width="272" height="14.7662" fill="white" transform="translate(0 0.938637)"/>
</clipPath>
</defs>
</svg>
