<svg width="400" height="36" viewBox="0 0 400 36" fill="none" xmlns="http://www.w3.org/2000/svg">
<g clip-path="url(#clip0_516_42796)">
<path d="M200.141 18.1497L203.848 14.4318L200.141 10.7535L196.434 14.4714L200.141 18.1497Z" fill="#D8B52A"/>
<path d="M200.141 34.8209L203.848 31.0993L200.141 27.4247L196.434 31.1426L200.141 34.8209Z" fill="#D8B52A"/>
<path d="M200.087 28.2252L182.013 10.2991L190.411 1.87158L191.18 2.63608L183.545 10.2955L200.083 26.6962L216.624 10.108L209.181 2.72624L209.942 1.95813L218.157 10.1044L200.087 28.2252Z" fill="#D8B52A"/>
<path d="M390.602 29.6785V9.55628H216.137L209.257 2.72625L202.795 2.67938L225.823 28.5714H391.709V29.6785H225.329L200.313 1.55426L209.715 1.62278L216.592 8.4492H391.709V29.6785" fill="#D8B52A"/>
<path d="M400 15.7767H384.223V-0.000152588H400V15.7767ZM385.33 14.6699H398.9V1.10704H385.338L385.33 14.6699Z" fill="#D8B52A"/>
<path d="M333.989 22.8052H281.441C281.364 22.8113 281.287 22.8017 281.215 22.7766C281.142 22.7516 281.076 22.7117 281.02 22.6597C280.963 22.6077 280.918 22.5447 280.887 22.4745C280.857 22.4042 280.841 22.3283 280.841 22.2516C280.841 22.1749 280.857 22.0993 280.887 22.029C280.918 21.9587 280.963 21.8954 281.02 21.8434C281.076 21.7914 281.142 21.7519 281.215 21.7268C281.287 21.7018 281.364 21.6918 281.441 21.698H333.989C334.129 21.7092 334.258 21.7725 334.353 21.8751C334.447 21.9777 334.5 22.112 334.5 22.2516C334.5 22.3911 334.447 22.5258 334.353 22.6284C334.258 22.731 334.129 22.7939 333.989 22.8052Z" fill="#D8B52A"/>
<path d="M270.406 22.8052H228.355C228.216 22.7939 228.086 22.731 227.991 22.6284C227.897 22.5258 227.844 22.3911 227.844 22.2516C227.844 22.112 227.897 21.9777 227.991 21.8751C228.086 21.7725 228.216 21.7092 228.355 21.698H270.406C270.483 21.6918 270.559 21.7018 270.632 21.7268C270.704 21.7519 270.771 21.7914 270.827 21.8434C270.884 21.8954 270.929 21.9587 270.96 22.029C270.99 22.0993 271.006 22.1749 271.006 22.2516C271.006 22.3283 270.99 22.4042 270.96 22.4745C270.929 22.5447 270.884 22.6077 270.827 22.6597C270.771 22.7117 270.704 22.7516 270.632 22.7766C270.559 22.8017 270.483 22.8113 270.406 22.8052Z" fill="#D8B52A"/>
<path d="M395.637 15.5821H394.53V29.6785H395.637V15.5821Z" fill="#D8B52A"/>
<path d="M391.154 29.6785H395.081V15.3839H391.154V29.6785Z" fill="#D8B52A"/>
<path d="M384.775 4.52209H212.539V5.62918H384.775V4.52209Z" fill="#D8B52A"/>
<path d="M385.265 9.00092V5.07379L368.58 5.07379V9.00092H385.265Z" fill="#D8B52A"/>
<path d="M350.419 9.00096V5.07382L333.734 5.07382V9.00096H350.419Z" fill="#D8B52A"/>
<path d="M315.573 9.00102V5.07388L298.887 5.07388V9.00102H315.573Z" fill="#D8B52A"/>
<path d="M281.217 9.00099V5.07385L264.532 5.07385V9.00099H281.217Z" fill="#D8B52A"/>
<path d="M246.371 9.00447V5.07751L229.686 5.07751V9.00447H246.371Z" fill="#D8B52A"/>
<path d="M275.682 24.5506C275.217 24.5506 274.762 24.4128 274.376 24.1544C273.989 23.896 273.688 23.5289 273.51 23.0993C273.332 22.6697 273.285 22.1968 273.376 21.7407C273.466 21.2846 273.69 20.8658 274.019 20.537C274.348 20.2082 274.767 19.9843 275.223 19.8936C275.679 19.8029 276.152 19.8495 276.582 20.0274C277.011 20.2054 277.378 20.5067 277.637 20.8934C277.895 21.28 278.033 21.7345 278.033 22.1995C278.033 22.5083 277.972 22.8141 277.854 23.0993C277.736 23.3846 277.563 23.6438 277.344 23.8621C277.126 24.0804 276.867 24.2535 276.582 24.3717C276.296 24.4898 275.991 24.5506 275.682 24.5506ZM275.682 20.5838C275.36 20.5838 275.046 20.6795 274.778 20.8582C274.511 21.0369 274.302 21.2907 274.179 21.5878C274.056 21.885 274.024 22.2123 274.087 22.5278C274.15 22.8432 274.304 23.1328 274.532 23.3603C274.759 23.5877 275.049 23.7427 275.365 23.8054C275.68 23.8682 276.007 23.8359 276.304 23.7128C276.601 23.5897 276.855 23.3812 277.034 23.1138C277.213 22.8463 277.308 22.5321 277.308 22.2105C277.309 21.9961 277.268 21.7834 277.186 21.585C277.105 21.3867 276.986 21.2064 276.835 21.0543C276.684 20.9022 276.504 20.7816 276.306 20.699C276.108 20.6164 275.896 20.5737 275.682 20.5733V20.5838Z" fill="#D8B52A"/>
<path d="M219.978 14.3524L200.058 34.1934L200 34.1357V35.6719L200.054 35.7224L220.425 15.4343H384.238V29.1051H385.319V14.3524H219.978Z" fill="#D8B52A"/>
<path d="M9.39761 29.6785V9.55628H183.866L190.743 2.72625L197.205 2.67938L174.176 28.5714H8.29053V29.6785H174.674L199.69 1.55426L190.285 1.62278L183.408 8.4492H8.29053V29.6785" fill="#D8B52A"/>
<path d="M0 15.7768H15.7769V-9.15527e-05H0V15.7768ZM14.6697 14.6699H1.10702V1.10711H14.6697V14.6699Z" fill="#D8B52A"/>
<path d="M66.0033 22.8052H118.559C118.636 22.8113 118.712 22.8017 118.785 22.7766C118.857 22.7516 118.924 22.7117 118.98 22.6597C119.037 22.6077 119.082 22.5447 119.113 22.4745C119.143 22.4042 119.159 22.3283 119.159 22.2516C119.159 22.1749 119.143 22.0993 119.113 22.029C119.082 21.9587 119.037 21.8954 118.98 21.8434C118.924 21.7914 118.857 21.7519 118.785 21.7268C118.712 21.7018 118.636 21.6918 118.559 21.698H66.0033C65.8642 21.7092 65.7345 21.7725 65.6399 21.8751C65.5453 21.9777 65.4927 22.112 65.4927 22.2516C65.4927 22.3911 65.5453 22.5258 65.6399 22.6284C65.7345 22.731 65.8642 22.7939 66.0033 22.8052Z" fill="#D8B52A"/>
<path d="M129.594 22.8052H171.645C171.784 22.7939 171.914 22.731 172.008 22.6284C172.103 22.5258 172.156 22.3911 172.156 22.2516C172.156 22.112 172.103 21.9777 172.008 21.8751C171.914 21.7725 171.784 21.7092 171.645 21.698H129.594C129.517 21.6918 129.44 21.7018 129.368 21.7268C129.295 21.7519 129.229 21.7914 129.172 21.8434C129.116 21.8954 129.071 21.9587 129.04 22.029C129.01 22.0993 128.994 22.1749 128.994 22.2516C128.994 22.3283 129.01 22.4042 129.04 22.4745C129.071 22.5447 129.116 22.6077 129.172 22.6597C129.229 22.7117 129.295 22.7516 129.368 22.7766C129.44 22.8017 129.517 22.8113 129.594 22.8052Z" fill="#D8B52A"/>
<path d="M5.47037 15.5821H4.36328V29.6785H5.47037V15.5821Z" fill="#D8B52A"/>
<path d="M8.84212 15.3838H4.91504V29.6785H8.84212V15.3838Z" fill="#D8B52A"/>
<path d="M187.461 4.52209H15.2251V5.62918H187.461V4.52209Z" fill="#D8B52A"/>
<path d="M31.4199 9.00453V5.07739L14.7345 5.07739V9.00453H31.4199Z" fill="#D8B52A"/>
<path d="M66.2661 9.0045V5.07736L49.5807 5.07736V9.0045H66.2661Z" fill="#D8B52A"/>
<path d="M101.112 9.00084V5.07388L84.4269 5.07388V9.00084H101.112Z" fill="#D8B52A"/>
<path d="M135.468 9.00084V5.07388L118.782 5.07388V9.00084H135.468Z" fill="#D8B52A"/>
<path d="M170.318 9.0045V5.07736L153.632 5.07736V9.0045H170.318Z" fill="#D8B52A"/>
<path d="M124.318 24.5506C124.783 24.5506 125.238 24.4128 125.624 24.1544C126.011 23.896 126.312 23.5289 126.49 23.0993C126.668 22.6697 126.715 22.1968 126.624 21.7407C126.533 21.2846 126.309 20.8658 125.981 20.537C125.652 20.2082 125.233 19.9843 124.777 19.8936C124.321 19.8029 123.848 19.8495 123.418 20.0274C122.989 20.2054 122.622 20.5067 122.363 20.8934C122.105 21.28 121.967 21.7345 121.967 22.1995C121.968 22.8228 122.216 23.4203 122.657 23.861C123.097 24.3018 123.695 24.5496 124.318 24.5506ZM124.318 20.5838C124.64 20.5838 124.954 20.6795 125.222 20.8582C125.489 21.0369 125.698 21.2907 125.821 21.5878C125.944 21.885 125.976 22.2123 125.913 22.5278C125.85 22.8432 125.696 23.1328 125.468 23.3603C125.241 23.5877 124.951 23.7427 124.635 23.8054C124.32 23.8682 123.993 23.8359 123.696 23.7128C123.399 23.5897 123.145 23.3812 122.966 23.1138C122.787 22.8463 122.692 22.5321 122.692 22.2105C122.691 21.9961 122.732 21.7834 122.813 21.585C122.895 21.3867 123.014 21.2064 123.165 21.0543C123.316 20.9022 123.496 20.7816 123.694 20.699C123.892 20.6164 124.104 20.5737 124.318 20.5733V20.5838Z" fill="#D8B52A"/>
<path d="M180.022 14.3524L199.942 34.1934L200 34.1357V35.6719L199.949 35.7224L179.575 15.4343H15.7659V29.1051H14.6841V14.3524H180.022Z" fill="#D8B52A"/>
</g>
<defs>
<clipPath id="clip0_516_42796">
<rect width="400" height="35.7224" fill="white"/>
</clipPath>
</defs>
</svg>
