<svg width="576" height="533" viewBox="0 0 576 533" fill="none" xmlns="http://www.w3.org/2000/svg">
<g clip-path="url(#clip0_537_57431)">
<path d="M287.8 231.504L268.84 134.764L172 115.992L268.84 96.9797L287.8 0.23999L306.82 96.9797L403.6 115.992L306.82 135.004L287.8 231.504ZM187.6 115.752L271.6 132.185L288.04 216.15L304.48 132.185L388.48 115.752L304.48 99.3185L288.04 15.3534L271.6 99.3185L187.6 115.752Z" fill="white"/>
<path d="M228.34 175.247L268.3 115.752L228.34 56.2563L287.8 96.2599L347.32 56.2563L307.36 115.752L347.32 175.247L287.8 135.244L228.34 175.247ZM287.8 131.645L336.34 164.211L303.76 115.752L336.34 67.2919L287.8 99.8583L239.32 67.2919L271.9 115.752L239.32 164.211L287.8 131.645Z" fill="white"/>
<path d="M287.8 103.757L284.98 112.933L275.8 115.752L284.98 118.571L287.8 127.747L290.62 118.571L299.8 115.752L290.62 112.933L287.8 103.757Z" fill="white"/>
<path d="M185.281 366.207C185.398 363.864 186.201 361.607 187.588 359.714C188.976 357.822 190.889 356.379 193.089 355.562C195.289 354.746 197.681 354.592 199.968 355.12C202.255 355.649 204.337 356.836 205.955 358.535C207.574 360.234 208.659 362.37 209.076 364.679C209.492 366.988 209.222 369.368 208.298 371.525C207.375 373.682 205.84 375.521 203.881 376.815C201.923 378.108 199.628 378.799 197.281 378.802C195.653 378.804 194.042 378.475 192.546 377.835C191.049 377.195 189.698 376.258 188.576 375.08C187.453 373.902 186.582 372.507 186.016 370.982C185.449 369.457 185.199 367.832 185.281 366.207ZM207.121 366.207C207.004 364.313 206.334 362.495 205.194 360.977C204.055 359.458 202.496 358.307 200.709 357.665C198.923 357.022 196.987 356.917 195.141 357.362C193.295 357.807 191.62 358.782 190.323 360.168C189.025 361.553 188.163 363.288 187.84 365.158C187.518 367.029 187.751 368.953 188.51 370.692C189.269 372.432 190.521 373.911 192.112 374.947C193.703 375.983 195.562 376.531 197.461 376.523C198.764 376.485 200.046 376.186 201.231 375.643C202.416 375.1 203.48 374.324 204.359 373.361C205.238 372.399 205.913 371.27 206.347 370.041C206.78 368.812 206.962 367.508 206.88 366.207H207.121Z" fill="white"/>
<path d="M239.28 365.128H248.64V367.407H239.28V378.442H236.82V353.972H249.6L249.96 356.191H239.28V365.128Z" fill="white"/>
<path d="M240.48 367.527H0V365.368H240.48V367.527Z" fill="white"/>
<path d="M320.4 356.191H312.24V378.442H309.84V356.191H301.74V353.972H320.4V356.191Z" fill="white"/>
<path d="M365.64 353.972V378.442H363.24V367.287H348.9V378.442H346.5V353.972H348.9V365.128H363.24V353.972H365.64Z" fill="white"/>
<path d="M408.841 376.223L408.361 378.442H394.681V353.972H408L408.42 356.191H397.081V364.948H407.281V367.107H397.081V376.223H408.841Z" fill="white"/>
<path d="M576 367.527H255.42V365.368H576V367.527Z" fill="white"/>
<path d="M19.2402 307.132C19.1339 304.387 19.5881 301.65 20.5754 299.087C21.5628 296.524 23.0628 294.189 24.9832 292.224C26.9035 290.26 29.2042 288.707 31.7449 287.661C34.2856 286.615 37.0131 286.098 39.7605 286.141C43.5504 286.077 47.285 287.052 50.5601 288.96L51.4602 295.917C48.2545 293.284 44.2669 291.787 40.1201 291.658C36.1266 291.905 32.3775 293.665 29.637 296.579C26.8965 299.493 25.3706 303.342 25.3706 307.342C25.3706 311.341 26.8965 315.19 29.637 318.104C32.3775 321.019 36.1266 322.778 40.1201 323.025C44.4825 322.979 48.705 321.481 52.1201 318.767L50.9805 325.364C47.7805 327.26 44.1373 328.281 40.4175 328.323C36.6977 328.365 33.0326 327.426 29.7908 325.602C26.549 323.779 23.8444 321.134 21.9502 317.933C20.056 314.733 19.0384 311.09 19 307.372L19.2402 307.132Z" fill="white"/>
<path d="M113.56 286.74V327.464H107.56V309.471H86.0801V327.464H80.0801V286.74H86.0801V304.733H107.56V286.74H113.56Z" fill="white"/>
<path d="M169.24 327.463L157.24 311.57H150.7V327.463H144.7V286.74H156.7C158.419 286.521 160.165 286.666 161.825 287.166C163.485 287.665 165.02 288.507 166.333 289.638C167.646 290.769 168.706 292.164 169.444 293.731C170.183 295.298 170.583 297.003 170.62 298.735C170.661 301.224 169.926 303.663 168.518 305.716C167.11 307.768 165.097 309.332 162.76 310.191L175.72 327.283L169.24 327.463ZM151.24 306.472H157.24C162.34 306.472 165.58 303.893 165.58 299.275C165.607 298.234 165.407 297.198 164.994 296.242C164.582 295.285 163.966 294.429 163.19 293.733C162.414 293.038 161.496 292.519 160.5 292.212C159.504 291.906 158.453 291.819 157.42 291.958H151.42L151.24 306.472Z" fill="white"/>
<path d="M198.76 307.132C198.819 303.062 200.082 299.101 202.388 295.747C204.694 292.392 207.941 289.795 211.721 288.281C215.501 286.767 219.644 286.405 223.629 287.239C227.615 288.074 231.264 290.068 234.119 292.97C236.973 295.873 238.904 299.555 239.67 303.553C240.435 307.55 240.001 311.685 238.421 315.437C236.841 319.188 234.186 322.388 230.791 324.635C227.396 326.882 223.412 328.075 219.34 328.063C216.6 328.089 213.882 327.562 211.35 326.514C208.819 325.467 206.524 323.92 204.603 321.966C202.683 320.013 201.175 317.692 200.171 315.144C199.167 312.595 198.687 309.87 198.76 307.132ZM233.86 307.132C233.673 304.296 232.659 301.576 230.945 299.307C229.231 297.039 226.89 295.321 224.212 294.366C221.533 293.41 218.634 293.259 215.87 293.93C213.107 294.6 210.6 296.065 208.658 298.142C206.716 300.219 205.425 302.818 204.942 305.62C204.46 308.422 204.808 311.303 205.944 313.91C207.079 316.516 208.952 318.734 211.332 320.289C213.712 321.845 216.496 322.671 219.34 322.666C221.33 322.653 223.297 322.235 225.121 321.437C226.944 320.638 228.585 319.477 229.944 318.023C231.303 316.569 232.352 314.854 233.025 312.981C233.698 311.108 233.982 309.118 233.86 307.132Z" fill="white"/>
<path d="M274.66 298.016V327.463H268.66V286.44H271.301L296.74 315.648V286.74H302.74V327.703H300.4L274.66 298.016Z" fill="white"/>
<path d="M334.36 286.74H340.36V327.464H334.36V286.74Z" fill="white"/>
<path d="M369.46 307.132C369.354 304.387 369.808 301.65 370.795 299.087C371.783 296.524 373.283 294.189 375.203 292.224C377.123 290.26 379.424 288.707 381.965 287.661C384.505 286.615 387.233 286.098 389.98 286.141C393.77 286.077 397.505 287.052 400.78 288.96L401.56 295.677C398.354 293.044 394.367 291.547 390.22 291.418C386.226 291.665 382.477 293.425 379.737 296.339C376.996 299.253 375.471 303.102 375.471 307.102C375.471 311.101 376.996 314.95 379.737 317.864C382.477 320.778 386.226 322.538 390.22 322.785C394.582 322.739 398.805 321.241 402.22 318.527L401.08 325.124C397.88 327.021 394.237 328.041 390.517 328.083C386.797 328.125 383.132 327.187 379.89 325.363C376.649 323.539 373.944 320.893 372.05 317.693C370.156 314.493 369.138 310.85 369.1 307.132H369.46Z" fill="white"/>
<path d="M452.98 322.186L451.96 327.464H430.24V286.74H436.24V322.186H452.98Z" fill="white"/>
<path d="M504.7 322.186L503.62 327.464H480.041V286.74H503.08L504.041 291.958H486.041V304.313H502V309.351H486.041V322.186H504.7Z" fill="white"/>
<path d="M531.46 324.105L530.56 316.968C534.15 320.43 538.895 322.438 543.88 322.606C548.2 322.606 551.14 320.267 551.14 316.608C551.14 312.95 547.48 311.09 542.92 309.051C536.5 306.233 531.821 303.414 531.821 297.056C531.821 290.699 536.86 286.081 544.9 286.081C548.15 286.082 551.356 286.842 554.26 288.3L555.16 295.137C552.149 292.798 548.472 291.474 544.66 291.359C540.16 291.359 537.76 293.878 537.76 296.757C537.76 300.715 542.14 302.274 546.52 304.253C552.52 306.712 557.02 309.711 557.02 316.248C556.981 317.916 556.595 319.558 555.885 321.068C555.175 322.578 554.159 323.923 552.9 325.018C551.64 326.113 550.167 326.934 548.573 327.427C546.978 327.92 545.298 328.076 543.64 327.884C539.28 327.962 535.01 326.637 531.46 324.105Z" fill="white"/>
<path d="M21 410.709H28.0796V459.648H21V410.709Z" fill="white"/>
<path d="M70.0195 424.323V459.648H63.1201V410.349H66.2996L96.78 445.494V410.709H104.04V459.948H101.22L70.0195 424.323Z" fill="white"/>
<path d="M178.679 410.709V459.648H171.6V438.417H146.04V459.648H139.02V410.709H146.04V432.06H171.78V410.709H178.679Z" fill="white"/>
<path d="M240.299 446.694H220.079L214.679 459.648H207.359L228.72 410.349H231.66L253.139 459.648H245.699L240.299 446.694ZM237.9 440.696L230.34 422.704L222.78 440.696H237.9Z" fill="white"/>
<path d="M315.06 445.854C315.041 447.827 314.605 449.774 313.782 451.567C312.959 453.36 311.767 454.96 310.283 456.262C308.8 457.564 307.058 458.538 305.172 459.121C303.287 459.705 301.3 459.884 299.34 459.648H281.82V410.709H298.08C299.942 410.464 301.836 410.614 303.636 411.149C305.437 411.684 307.104 412.592 308.531 413.814C309.957 415.036 311.11 416.545 311.914 418.242C312.719 419.939 313.157 421.786 313.2 423.663C313.273 425.837 312.754 427.99 311.697 429.892C310.64 431.794 309.085 433.372 307.2 434.459C309.527 435.314 311.532 436.868 312.94 438.909C314.347 440.949 315.088 443.376 315.06 445.854ZM288.78 416.886V431.88H297.9C298.968 432.004 300.051 431.893 301.072 431.555C302.093 431.217 303.027 430.66 303.81 429.923C304.593 429.186 305.206 428.287 305.604 427.288C306.003 426.29 306.18 425.217 306.12 424.143C306.12 419.885 303.12 416.886 297.54 416.886H288.78ZM308.04 445.854C308.04 441.296 305.1 438.177 299.04 438.177H288.959V453.711H299.04C304.92 453.471 308.04 450.112 308.04 445.854Z" fill="white"/>
<path d="M346.92 410.709H353.94V459.648H346.92V410.709Z" fill="white"/>
<path d="M422.34 417.066H406.56V459.648H399.54V417.066H383.76V410.709H422.34V417.066Z" fill="white"/>
<path d="M482.04 453.291L480.72 459.648H452.04V410.709H479.64L480.84 417.066H459.06V431.88H478.26V437.877H459.06V453.231L482.04 453.291Z" fill="white"/>
<path d="M554.04 435.479C554.047 438.77 553.377 442.028 552.071 445.049C550.765 448.071 548.851 450.791 546.448 453.042C544.044 455.292 541.204 457.023 538.102 458.129C535.001 459.235 531.705 459.691 528.42 459.469H513.12V410.529H528.42C531.787 410.298 535.166 410.78 538.334 411.944C541.503 413.107 544.391 414.925 546.809 417.28C549.227 419.634 551.121 422.472 552.367 425.608C553.613 428.744 554.183 432.108 554.04 435.479ZM546.78 435.479C546.915 432.995 546.518 430.51 545.617 428.191C544.716 425.872 543.33 423.771 541.553 422.029C539.777 420.287 537.649 418.944 535.312 418.088C532.975 417.232 530.482 416.884 528 417.067H520.2V453.052H528C530.414 453.234 532.84 452.914 535.125 452.112C537.41 451.31 539.503 450.044 541.273 448.393C543.043 446.742 544.452 444.742 545.41 442.519C546.368 440.296 546.855 437.899 546.84 435.479H546.78Z" fill="white"/>
<path d="M157.04 482.679L139.52 531.978H136.94L123.08 496.773L109.28 531.978H106.64L89 482.679H96.3198L108.32 517.524L121.82 482.499H124.28L137.839 517.524L149.42 482.679H157.04Z" fill="white"/>
<path d="M182.36 507.208C182.443 502.34 183.963 497.605 186.729 493.597C189.495 489.589 193.384 486.487 197.908 484.681C202.431 482.875 207.388 482.445 212.155 483.446C216.922 484.446 221.287 486.832 224.703 490.304C228.118 493.776 230.431 498.179 231.351 502.96C232.271 507.741 231.758 512.688 229.875 517.179C227.992 521.67 224.824 525.504 220.769 528.201C216.713 530.898 211.951 532.337 207.08 532.338C203.791 532.363 200.531 531.727 197.492 530.468C194.454 529.209 191.701 527.352 189.395 525.007C187.089 522.663 185.278 519.88 184.069 516.822C182.861 513.765 182.279 510.495 182.36 507.208ZM224.36 507.208C224.126 503.815 222.905 500.564 220.847 497.855C218.789 495.145 215.985 493.096 212.778 491.959C209.571 490.822 206.101 490.647 202.795 491.454C199.49 492.262 196.492 494.018 194.172 496.506C191.851 498.993 190.308 502.105 189.732 505.457C189.157 508.81 189.574 512.257 190.933 515.376C192.292 518.495 194.532 521.149 197.38 523.011C200.227 524.874 203.557 525.865 206.96 525.861C209.36 525.866 211.735 525.378 213.939 524.428C216.142 523.477 218.127 522.084 219.77 520.335C221.413 518.586 222.678 516.519 223.488 514.261C224.299 512.003 224.636 509.602 224.48 507.208H224.36Z" fill="white"/>
<path d="M292.52 531.618L278.48 512.546H270.62V531.618H263.42V482.679H278.06C280.149 482.416 282.27 482.599 284.284 483.216C286.297 483.833 288.156 484.871 289.739 486.26C291.321 487.649 292.59 489.358 293.462 491.273C294.335 493.189 294.791 495.268 294.8 497.373C294.847 500.356 293.966 503.279 292.279 505.74C290.591 508.2 288.181 510.076 285.38 511.107L300.92 531.618H292.52ZM270.62 506.429H277.7C283.7 506.429 287.66 503.31 287.66 497.792C287.699 496.543 287.463 495.3 286.971 494.151C286.478 493.001 285.741 491.974 284.809 491.139C283.877 490.305 282.774 489.685 281.577 489.321C280.381 488.958 279.119 488.861 277.88 489.036H270.62V506.429Z" fill="white"/>
<path d="M356.42 525.261L355.22 531.618H329.42V482.679H336.44V525.261H356.42Z" fill="white"/>
<path d="M426.92 507.448C426.927 510.74 426.257 513.998 424.951 517.019C423.645 520.041 421.731 522.761 419.328 525.011C416.925 527.261 414.084 528.993 410.982 530.099C407.881 531.204 404.585 531.661 401.3 531.438H386.06V482.499H401.42C404.778 482.285 408.143 482.78 411.297 483.952C414.452 485.123 417.324 486.944 419.729 489.296C422.134 491.649 424.016 494.481 425.255 497.608C426.494 500.735 427.061 504.088 426.92 507.448ZM419.66 507.448C419.795 504.964 419.398 502.48 418.497 500.161C417.596 497.842 416.21 495.741 414.434 493.999C412.657 492.257 410.529 490.913 408.192 490.057C405.855 489.202 403.362 488.854 400.88 489.036H393.08V525.021H400.88C403.272 525.169 405.67 524.824 407.922 524.006C410.175 523.188 412.235 521.915 413.974 520.266C415.714 518.618 417.094 516.629 418.031 514.424C418.968 512.219 419.441 509.844 419.42 507.448H419.66Z" fill="white"/>
<path d="M456.5 527.6L455.42 519.024C459.709 523.192 465.401 525.609 471.38 525.801C476.54 525.801 480.08 522.982 480.08 518.664C480.08 514.346 475.7 512.067 470.24 509.608C462.5 506.189 456.92 502.83 456.92 495.213C456.92 487.597 462.92 481.959 472.58 481.959C476.48 481.964 480.324 482.888 483.8 484.658L484.88 492.815C481.255 490.042 476.844 488.488 472.28 488.377C466.88 488.377 464.06 491.315 464.06 494.854C464.06 499.592 469.28 501.451 474.56 503.85C481.34 506.789 487.1 510.387 487.1 518.244C487.055 520.241 486.594 522.207 485.744 524.015C484.895 525.823 483.678 527.433 482.169 528.743C480.661 530.053 478.895 531.034 476.985 531.622C475.076 532.21 473.064 532.393 471.08 532.158C465.853 532.267 460.734 530.666 456.5 527.6Z" fill="white"/>
</g>
<defs>
<clipPath id="clip0_537_57431">
<rect width="576" height="532.54" fill="white"/>
</clipPath>
</defs>
</svg>
