<svg width="143" height="143" viewBox="0 0 143 143" fill="none" xmlns="http://www.w3.org/2000/svg">
<path d="M71.3769 142.152L59.6914 82.7503L0.00695801 71.2234L59.6914 59.5494L71.3769 0.147461L83.099 59.5494L142.746 71.2234L83.099 82.8975L71.3769 142.152ZM9.62145 71.0762L61.3923 81.1668L71.5245 132.725L81.6568 81.1668L133.428 71.0762L81.6568 60.9854L71.5245 9.4277L61.3923 60.9854L9.62145 71.0762Z" fill="white"/>
<path d="M34.7305 107.608L59.3587 71.076L34.7305 34.5435L71.3769 59.1072L108.06 34.5435L83.4322 71.076L108.06 107.608L71.3769 83.0447L34.7305 107.608ZM71.3769 80.835L101.293 100.832L81.2131 71.076L101.293 41.3197L71.3769 61.3167L41.4975 41.3197L61.5774 71.076L41.4975 100.832L71.3769 80.835Z" fill="white"/>
<path d="M71.3768 63.7109L69.6388 69.3455L63.981 71.0763L69.6388 72.8072L71.3768 78.4417L73.1148 72.8072L78.7726 71.0763L73.1148 69.3455L71.3768 63.7109Z" fill="white"/>
</svg>
